<svg width="88" height="88" fill="none" xmlns="http://www.w3.org/2000/svg"><path d="M28.115 49.145a1.832 1.832 0 01-.572-1.337 1.853 1.853 0 01.572-1.337 2.004 2.004 0 012.764 0l13.814 13.374a1.835 1.835 0 01.572 1.337 1.853 1.853 0 01-.572 1.338 2.004 2.004 0 01-2.763 0L28.115 49.146z" fill="#FF3568"/><path fill-rule="evenodd" clip-rule="evenodd" d="M26.209 35.475l7.062-6.837c4.675-4.525 10.013-4.172 14.19-.127.53.512 1.194 1.412 1.592 1.99.165.224.265.385.398.512.264.258.53.322 1.094.162 3.481-.931 6.53.097 9.448 2.92 4.079 3.95 4.51 9.245-.663 14.254l-9.913 9.597c-.53.514-.961.482-1.492-.032L26.243 36.92c-.53-.512-.564-.93-.033-1.444h-.001zm14.488 3.629l1.691-1.637c.862-.835.995-1.99-.033-2.986-.995-.963-2.221-.866-3.083-.032l-1.69 1.638c-.532.512-.498.93.032 1.443l1.591 1.542c.531.512.962.545 1.492.032zm8.09 7.833l4.443-4.303c1.293-1.251 1.559-2.408.465-3.467-1.062-1.026-2.288-.802-3.582.45l-4.442 4.302c-.53.513-.497.93.033 1.444l1.591 1.54c.531.514.962.546 1.493.033z" fill="#FF3568"/></svg>