<svg width="88" height="88" fill="none" xmlns="http://www.w3.org/2000/svg"><path d="M66 43.734c0 12.284-9.85 22.241-22 22.241s-22-9.957-22-22.241c0-12.284 9.85-22.242 22-22.242s22 9.958 22 22.242z" fill="#0052FF"/><path d="M44.004 35.914c-4.273 0-7.734 3.5-7.734 7.82s3.46 7.82 7.734 7.82c3.828 0 7.006-2.822 7.618-6.517h7.793c-.658 8.028-7.303 14.336-15.411 14.336-8.54 0-15.469-7.005-15.469-15.64 0-8.633 6.929-15.638 15.469-15.638 8.108 0 14.753 6.308 15.41 14.336h-7.798c-.612-3.695-3.784-6.517-7.612-6.517z" fill="#fff"/></svg>