<svg width="25" height="24" fill="none" xmlns="http://www.w3.org/2000/svg"><path d="M19.316 4.791l-5.895 4.423 1.095-2.61 4.8-1.813z" fill="#E2761B" stroke="#E2761B" stroke-linecap="round" stroke-linejoin="round"/><path d="M5.72 4.791l5.842 4.465-1.042-2.651-4.8-1.814zm11.477 10.252l-1.568 2.43 3.356.933.96-3.31-2.748-.053zm-12.099.054l.953 3.31 3.356-.934-1.562-2.43-2.747.054z" fill="#E4761B" stroke="#E4761B" stroke-linecap="round" stroke-linejoin="round"/><path d="M9.224 10.937l-.936 1.43 3.327.15-.112-3.62-2.28 2.04zm6.588 0l-2.314-2.082-.077 3.662 3.326-.15-.935-1.43zm-6.405 6.536l2.007-.988-1.729-1.364-.278 2.351zm4.215-.988l2.007.988-.279-2.352-1.728 1.364z" fill="#E4761B" stroke="#E4761B" stroke-linecap="round" stroke-linejoin="round"/><path d="M15.629 17.473l-2.007-.988.16 1.323-.018.556 1.865-.892zm-6.222 0l1.865.891-.012-.556.154-1.323-2.007.988z" fill="#D7C1B3" stroke="#D7C1B3" stroke-linecap="round" stroke-linejoin="round"/><path d="M11.307 14.247l-1.67-.497 1.179-.544.491 1.04zm2.421 0l.492-1.041 1.183.544-1.675.497z" fill="#233447" stroke="#233447" stroke-linecap="round" stroke-linejoin="round"/><path d="M9.407 17.473l.29-2.43-1.853.054 1.563 2.376zm5.932-2.43l.29 2.43 1.568-2.376-1.858-.054zm1.408-2.675l-3.326.15.307 1.729.492-1.041 1.184.544 1.343-1.382zM9.638 13.75l1.178-.544.491 1.04.308-1.729-3.327-.15 1.35 1.383z" fill="#CD6116" stroke="#CD6116" stroke-linecap="round" stroke-linejoin="round"/><path d="M8.288 12.368l1.397 2.753-.047-1.37-1.35-1.383zm7.116 1.382l-.053 1.37 1.397-2.752-1.344 1.382zm-3.789-1.233l-.308 1.73.391 2.04.083-2.686-.166-1.084zm1.805 0l-.16 1.078.078 2.693.39-2.041-.307-1.73z" fill="#E4751F" stroke="#E4751F" stroke-linecap="round" stroke-linejoin="round"/><path d="M13.728 14.247l-.39 2.04.284.198 1.728-1.364.054-1.371-1.676.497zm-4.09-.497l.047 1.37 1.729 1.365.284-.197-.39-2.041-1.67-.497z" fill="#F6851B" stroke="#F6851B" stroke-linecap="round" stroke-linejoin="round"/><path d="M13.764 18.364l.018-.556-.148-.132h-2.232l-.142.132.012.556-1.865-.892.651.539 1.326.928h2.268l1.325-.928.652-.539-1.865.892z" fill="#C0AD9E" stroke="#C0AD9E" stroke-linecap="round" stroke-linejoin="round"/><path d="M13.622 16.485l-.284-.197h-1.64l-.284.197-.154 1.323.142-.132h2.232l.148.132-.16-1.323z" fill="#161616" stroke="#161616" stroke-linecap="round" stroke-linejoin="round"/><path d="M19.565 9.501l.497-2.442-.745-2.268-5.695 4.273 2.19 1.873 3.096.916.68-.808-.295-.215.473-.437-.36-.288.473-.364-.314-.24zM4.974 7.06l.503 2.44-.32.24.474.364-.361.288.473.437-.296.215.68.808 3.097-.916 2.19-1.873L5.719 4.79l-.745 2.268z" fill="#763D16" stroke="#763D16" stroke-linecap="round" stroke-linejoin="round"/><path d="M18.908 11.853l-3.096-.916.936 1.43-1.397 2.753 1.847-.023h2.746l-1.036-3.244zm-9.684-.916l-3.096.916-1.03 3.244h2.747l1.84.024-1.396-2.753.935-1.43zm4.196 1.58l.202-3.453.894-2.46H10.52l.894 2.46.201 3.453.077 1.09.006 2.68h1.64l.006-2.68.077-1.09z" fill="#F6851B" stroke="#F6851B" stroke-linecap="round" stroke-linejoin="round"/></svg>