<svg width="88" height="88" fill="none" xmlns="http://www.w3.org/2000/svg"><path d="M29.665 34.26c8.109-8.011 21.257-8.011 29.366 0l.976.963c.405.4.405 1.05 0 1.45l-3.339 3.298c-.203.2-.531.2-.734 0l-1.343-1.326c-5.657-5.589-14.83-5.589-20.487 0l-1.438 1.42c-.203.2-.531.2-.734 0l-3.339-3.297a1.017 1.017 0 010-1.45l1.072-1.059zm36.27 6.82l2.972 2.934c.405.401.405 1.05 0 1.45L55.509 58.7c-.406.4-1.063.4-1.468 0l-9.51-9.393a.262.262 0 00-.367 0L34.655 58.7c-.405.4-1.063.4-1.468 0L19.789 45.465a1.017 1.017 0 010-1.45l2.97-2.936a1.05 1.05 0 011.47 0l9.508 9.393c.102.1.266.1.367 0l9.51-9.393c.405-.4 1.062-.4 1.468 0l9.509 9.393c.101.1.266.1.367 0l9.51-9.393c.405-.4 1.062-.4 1.468 0z" fill="#3C99FC"/></svg>