<svg width="25" height="24" fill="none" xmlns="http://www.w3.org/2000/svg"><path d="M7.288 8.458c2.949-2.913 7.73-2.913 10.678 0l.355.35a.37.37 0 010 .528l-1.214 1.199a.19.19 0 01-.267 0l-.488-.482a5.314 5.314 0 00-7.45 0l-.523.516a.19.19 0 01-.267 0L6.898 9.37a.37.37 0 010-.527l.39-.385zm13.19 2.48l1.08 1.067a.37.37 0 010 .528l-4.872 4.812a.38.38 0 01-.534 0l-3.458-3.415a.095.095 0 00-.134 0l-3.457 3.415a.38.38 0 01-.534 0l-4.872-4.812a.37.37 0 010-.528l1.08-1.067a.38.38 0 01.534 0l3.458 3.415a.095.095 0 00.133 0l3.458-3.415a.38.38 0 01.534 0l3.458 3.415a.095.095 0 00.133 0l3.458-3.415a.38.38 0 01.534 0z" fill="#3C99FC"/></svg>